<svg height='300px' width='300px'  fill="#694873" xmlns="http://www.w3.org/2000/svg" xmlns:xlink="http://www.w3.org/1999/xlink" version="1.1" x="0px" y="0px" viewBox="0 0 50 50" style="enable-background:new 0 0 50 50;" xml:space="preserve"><g><path d="M22.5,6.4l1-1l-0.1-0.1c-2-1.9-5.1-1.8-7,0.2l1,1C18.8,5,21,4.9,22.5,6.4L22.5,6.4z"></path><path d="M24.6,4.3l1-1l-0.2-0.2c-3.2-3-8.1-2.8-11.1,0.3l1.1,1c2.4-2.6,6.5-2.7,9-0.3L24.6,4.3z"></path><path d="M18.5,7.4l1,1c0.3-0.3,0.7-0.2,0.9,0l0.1,0.1l1-1l-0.1-0.1C20.6,6.5,19.3,6.6,18.5,7.4z"></path><path d="M6.8,15.6v28.6c0,2.7,2.2,4.9,4.9,4.9h16.7c0.7,0,1.4-0.2,2.1-0.5c-0.1-0.4-0.2-0.9-0.1-1.4l0.9-5.9l-4.6-3.9   c-1.9-1.6-2.1-4.3-0.5-6.2c1.6-1.9,4.4-2.1,6.2-0.5l1,0.8V15.6c0-2.7-2.2-4.9-4.9-4.9H11.6C8.9,10.7,6.8,12.9,6.8,15.6z M27.3,40.4   c1,0,1.9,0.8,1.9,1.9c0,1-0.8,1.9-1.9,1.9c-1,0-1.9-0.9-1.9-1.9C25.4,41.2,26.3,40.4,27.3,40.4z M27.3,15.5c1,0,1.9,0.9,1.9,1.9   s-0.8,1.9-1.9,1.9c-1,0-1.9-0.8-1.9-1.9S26.3,15.5,27.3,15.5z M27.3,23.8c1,0,1.9,0.8,1.9,1.9c0,1-0.8,1.9-1.9,1.9   c-1,0-1.9-0.8-1.9-1.9C25.4,24.7,26.3,23.8,27.3,23.8z M20,15.5c1,0,1.9,0.9,1.9,1.9S21,19.4,20,19.4c-1,0-1.9-0.8-1.9-1.9   S18.9,15.5,20,15.5z M20,23.8c1,0,1.9,0.8,1.9,1.9c0,1-0.9,1.9-1.9,1.9c-1,0-1.9-0.8-1.9-1.9C18.1,24.7,18.9,23.8,20,23.8z    M20,32.1c1,0,1.9,0.8,1.9,1.9c0,1.1-0.9,1.9-1.9,1.9c-1,0-1.9-0.8-1.9-1.9C18.1,33,18.9,32.1,20,32.1z M20,40.4   c1,0,1.9,0.8,1.9,1.9c0,1-0.9,1.9-1.9,1.9c-1,0-1.9-0.9-1.9-1.9C18.1,41.2,18.9,40.4,20,40.4z M12.6,15.5c1,0,1.9,0.9,1.9,1.9   s-0.8,1.9-1.9,1.9c-1,0-1.9-0.8-1.9-1.9S11.5,15.5,12.6,15.5z M12.6,23.8c1,0,1.9,0.8,1.9,1.9c0,1-0.8,1.9-1.9,1.9   c-1,0-1.9-0.8-1.9-1.9C10.7,24.7,11.5,23.8,12.6,23.8z M10.7,34c0-1.1,0.9-1.9,1.9-1.9c1.1,0,1.9,0.8,1.9,1.9v8.3   c0,1.1-0.8,1.9-1.9,1.9c-1,0-1.9-0.8-1.9-1.9V34z"></path><path d="M41.5,27.8c-0.3-2.9-2.8-5.1-5.8-5.1v13.4c0.2,0.1-2.4-2.1-2.5-2.2c-1-0.6-3.2-3.8-5.4-1.8h0c-1.2,1-1.1,2.8,0,3.7   c0.1,0.1,3.5,3,5.4,4.6v0.2c0.1-0.5-1,6.7-1,6.8c-0.1,0.7,0.3,1.3,0.9,1.5c0.3,0.1-0.1,0,9.4,0.1c0.8,0,1.1-0.9,0.5-1.4   C40.1,43.2,43,41.3,41.5,27.8z"></path></g></svg>